<?xml version="1.0" encoding="utf-8"?>
<!-- Generator: Adobe Illustrator 15.0.0, SVG Export Plug-In  -->
<!DOCTYPE svg PUBLIC "-//W3C//DTD SVG 1.1//EN" "http://www.w3.org/Graphics/SVG/1.1/DTD/svg11.dtd" [
	<!ENTITY ns_flows "http://ns.adobe.com/Flows/1.0/">
]>
<svg version="1.1"
	 xmlns="http://www.w3.org/2000/svg" xmlns:xlink="http://www.w3.org/1999/xlink" xmlns:a="http://ns.adobe.com/AdobeSVGViewerExtensions/3.0/"
	 x="0px" y="0px" width="1308px" height="1873px" viewBox="-20.125 -26.619 1308 1873"
	 overflow="visible" enable-background="new -20.125 -26.619 1308 1873" xml:space="preserve">
<defs>
</defs>
<path fill-rule="evenodd" clip-rule="evenodd" d="M34.125,397.658c2,0,4,0,6,0c0.551,5.218-0.443,8.891-6,8
	C34.125,402.991,34.125,400.324,34.125,397.658z"/>
<path fill-rule="evenodd" clip-rule="evenodd" d="M332.125,1115.658c2.63,2.543,4.012,6.864,1,10c-5.044,0.711-5.591-3.075-11-2
	C320.2,1115.732,325.344,1114.876,332.125,1115.658z"/>
<path fill-rule="evenodd" clip-rule="evenodd" d="M1089.125,1266.658c6.953,9.872,10.976,25.872,1,35
	c-16.351,11.16-46.113-4.889-60,6c-10.761,8.438,0.062,23.966-1,38c-0.519,6.853-3.692,9.504-5,16c7.847,14.569,28.987,2.296,43,7
	c10.178,3.417,9.898,12.854,17,20c-2.852,4.148-6.8,7.2-5,16c-13.059,10.128-30.646,6.366-50,5c-12.015,10.034,3.558,26.651,3,42
	c-0.348,9.555-11.144,14.619-9,23c3.423,13.383,52.818,1.779,65,11c3.353,2.538,15.575,17.708,14,25c-3.706,17.158-58,9.202-75,9
	c-11.525-0.137-37.731,3.845-44-6c-2.745-4.312-1.449-16.102-1-26c1.119-24.631,1.044-50.646,1-75c-0.073-40.321,2.449-83.074,1-115
	c-0.609-13.435-4.773-21.758,3-31C1022.555,1266.986,1061.855,1259.924,1089.125,1266.658z"/>
<path fill-rule="evenodd" clip-rule="evenodd" d="M176.125,1398.658c8.47-10.924,6.682-26.488,9-40c1.774-10.344,7.258-20.334,9-31
	c3.485-21.341,5.454-43.069,13-62c17.135,0.363,37.167-4.96,52,2c5.803,11.166,7.084,21.342,6,36c-0.23,3.109,1.294,6.744,1,9
	c-0.538,4.124-3.602,6.996-4,11c-0.314,3.159,1.013,7.612,1,11c-0.054,13.842-3.792,29.067-3,42c0.335,5.469,2.856,10.684,3,16
	c0.39,14.374-8.969,31.102-1,44c-14.178,21.643,13.818,81.874-14,86c-10.994,1.631-20.877-6.097-31-8
	c-0.523-45.885,0.576-96.566,1-143c-17.169,13.216-9.405,44.279-14,71c-0.751,4.368-3.191,8.294-4,13
	c-4.292,24.961-2.085,53.193-19,66c-6.806,0.807-10.946-1.054-16-2c-9.493-16.984-8.73-41.463-13-63c-2.19-11.048-8.774-20.621-6-34
	c-9.339-13.661-1.595-44.405-14-55c-9.349,19.652,5.724,47.589,3,77c-0.397,4.29-1.766,6.668-2,11c-0.792,14.674,10.38,56.078-1,64
	c-9.053,6.303-21.875-0.312-34,0c-8.242-7.484-2.919-18.834-2-31c1.482-19.609-2.005-41.355-1-63c2.443-52.623,1.363-108.521,5-157
	c17.409-0.823,46.338-11.266,58,4c2.404,23.918,9.483,52.328,11,79C170.071,1368.282,166.669,1386.892,176.125,1398.658z"/>
<path fill-rule="evenodd" clip-rule="evenodd" d="M374.125,1271.658c-4.355,12.023,0.188,24.188,0,36
	c-0.102,6.408-3.467,11.866-3,18c0.34,4.473,3.648,8.316,4,13c1.12,14.93-11.589,31.061-1,46c-4.693,7.553-6.058,22.371,2,27
	c-3.439,8.912-9.895,21.533-1,29c-1.119,8.078-9.059,32.435-6,45c2.113,8.682,9.827,6.504,14,13c-4.662,18.66-35.617,31.848-59,18
	c-1.345-27.603-0.698-66.436,3-97c-7.711-8.437,0.678-18.918,1-30c0.104-3.603-1.59-7.068-2-11c-3.525-33.811,1.465-75.276-3-109
	C332.711,1259.888,366.58,1261.37,374.125,1271.658z"/>
<path fill-rule="evenodd" clip-rule="evenodd" d="M570.125,1296.658c-3.336,8.824-1.394,19.377-3,30c-1.03,6.811-5.24,12.477-4,19
	c1.188,6.247,8.928,7.918,10,13c1.007,4.771-3.3,6.945-5,13c-1.206,4.294-4.017,18.903-4,22c0.023,4.185,3.542,7.002,4,12
	c0.558,6.09-4.145,26.595-4,34c0.132,6.726,3.9,12.723,4,19c0.234,14.659-6.499,35.035-14,44c-5.327,6.366-16.863,8.646-22,15
	c-24.507,6.187-62.286,5.992-88,0c-6.383-55.031-1.255-143.228-1-207c0.077-19.349-8.604-42.542,12-45
	C500.194,1260.282,556.29,1268.2,570.125,1296.658z M491.125,1305.658c-1.165,0.168-1.086,1.581-1,3c4.713,24.275-2.96,51.231-2,77
	c0.146,3.899,2.06,8.182,2,12c-0.078,4.965-3.227,10.021-3,15c0.26,5.712,3.767,10.612,4,16c0.776,17.911-10.698,37.686,1,53
	c7.84,2.937,15.849-1.074,21-4c12.533-45.118,5.475-118.008,4-166C511.371,1306.746,502.657,1304.792,491.125,1305.658z"/>
<path fill-rule="evenodd" clip-rule="evenodd" d="M631.125,1518.658c-6.407-36.107-1-78.797-1-121c0-42.6,0.982-85.021-1-123
	c2.133-6.729,6.052-7.545,13-9c27.505-5.759,69.869,2.307,93,7c10.684,11.059,20.067,26.658,21,45c0.536,10.534-2.201,21.759-2,33
	c0.377,21.058,6.458,51.474,4,79c-0.235,2.634-2.595,5.313-3,8c-0.712,4.712,0.354,10.938,0,16c-1.009,14.419-2.597,31.207-6,46
	C729,1524.693,673.184,1524.864,631.125,1518.658z M709.125,1462.658c1.411-8.03-1.799-29.412-1-47c0.847-18.639,0.534-31.293,0-47
	c-0.412-12.117,2.893-23.379,2-34c-1.855-22.094-13.786-34.842-36-27c-4.468,5.759,1.824,12.011,3,20c2.73,18.547-0.799,43.145-3,59
	c6.417,7.602-0.211,16.859,0,25c0.16,6.164,3.865,11.658,4,18c0.322,15.152-7.823,29.633-6,47
	C683.151,1490.156,706.426,1478.021,709.125,1462.658z"/>
<path fill-rule="evenodd" clip-rule="evenodd" d="M864.125,1271.658c-2.076,6.219,3.809,11.806,4,18c0.1,3.223-2.596,6.64-3,10
	c-0.55,4.567-1.205,15.682-1,20c0.184,3.869,3.051,8.105,3,12c-0.074,5.651-4.839,11.222-5,17c-0.18,6.443,5.879,13.242,6,20
	c0.085,4.702-3.659,9.488-4,14c-1.053,13.927,6.319,29.547-3,39c8.044,15.31-7.385,44.38,4,57c9.604,10.646,36.321-1.607,52,5
	c8.642,3.642,15.364,11.605,16,24c-1.952,5.98-9.462,13.974-18,15c-5.946,0.715-13.592-2.495-21-3c-23.627-1.61-53.2,1.306-74-1
	c-11.51-7.668-3.56-29.46-2-42c1.293-10.394-2.463-21.586-2-32c1.065-23.943,1-54.813,1-85c0-18.67-1.591-37.074-1-52
	c0.439-11.103,1.353-36.622,8-41C834.485,1259.835,857.992,1264.323,864.125,1271.658z"/>
<path fill-rule="evenodd" clip-rule="evenodd" d="M800.125,1606.658c-3.644,10.171,2.539,20.155,2,33
	c-7.208,10.653-29.498,10.901-44,11c-6.456-10.145-4.752-37.445-25-28c-6.635,3.095-8.532,21.925-7,33
	c0.932,6.732,8.658,18.771,14,24c3.317,3.247,8.568,4.136,12,7c11.078,9.245,16.399,24.77,31,30c-0.146,11.195,12.808,15.126,16,25
	c2.664,8.24-0.128,18.126,6,26c-1.291,24.648,0.711,52.727-19,66c-10.406,7.008-29.223,10.904-42,11
	c-33.074,0.247-65.033-27.669-61-63c6.395-10.943,28.743-14.804,38-4c1.617,11.716,4.895,21.771,13,27
	c16.626,2.112,27.673-3.23,28-21c0.512-27.795-27.139-45.756-42-63c-15.639-18.146-41.545-46.998-36-85
	c0.531-3.641,2.979-6.385,4-10c1.217-4.305-0.021-9.504,2-14c5.964-13.266,28.982-28.963,50-30c17.095-0.844,30.289,5.531,45,13
	C788.384,1600.399,794.276,1603.507,800.125,1606.658z"/>
<path fill-rule="evenodd" clip-rule="evenodd" d="M362.125,1584.658c11.841,12.912,7.356,31.271,9,50c1.006,11.459,6.278,25.1,7,41
	c0.36,7.919,0,16.098,0,24c0,6.613-2.284,15.513,3,21c9.193-3.656,4.663-12.771,5-20c0.907-19.469,7.736-42.872,9-65
	c0.289-5.05-1.374-10.174-1-15c0.826-10.665,6.807-20.159,4-30c7.177-9.398,33.775-10.419,42-2c0.209,8.613,2.186,16.12,1,25
	c-0.768,5.75-5.223,10.545-6,16c-1.334,9.36,3.185,17.753-4,23c-1.106,15.243-0.809,30.475-4,45c-1.168,5.314-4.579,9.479-5,15
	c-0.361,4.729,1.199,9.246,1,14c-0.792,18.888-9.056,36.29-10,54c-0.194,3.636,2.166,7.5,2,11c-0.318,6.736-6.14,14.972-7,22
	c-0.369,3.01,2.328,5.856,1,9c-3.525,4.809-4.272,12.395-9,16c-9.377,5.01-17.88-2.725-30-1c-9.253-16.78-10.584-40.306-14-62
	c-3.516-22.33-5.967-45.046-11-65c-7.787,3.66-3.77,13.483-4,21c-0.548,17.92-3.354,39.483-8,53c5.6,19.417-4.622,39.026-11,53
	c-10.623,4.644-25.964,0.23-36-2c-3.086-27.649-9.315-54.906-11-83c-1.876-31.278-10.222-61.893-14-93
	c-0.646-5.322,0.977-11.496,0-17c-0.693-3.905-3.93-7.152-5-11c-3.955-14.22-4.138-29.726-2-44c15.936-3.283,42.802-5.767,46,9
	c1.4,6.466-2.469,18.538-2,30c0.289,7.053,3.683,14.631,4,21c0.098,1.957-1.892,5.297-2,8c-0.145,3.626,2.115,7.783,2,11
	c-0.235,6.578-0.666,11.854,0,20c0.842,10.311-3.425,21.769,2,29c12.762-5.905,3.708-33.625,13-43c-0.068-29.552,4.246-58.51,11-84
	C335.396,1581.906,350.496,1581.821,362.125,1584.658z"/>
<path fill-rule="evenodd" clip-rule="evenodd" d="M983.125,1619.658c-8.766,6.199-28.476,6.509-39,5c-8.094,5.788-2.271,24.167,0,32
	c-3.26,14.627,0.632,32.133-1,48c-0.45,4.381-2.751,8.784-3,13c-0.252,4.254,2.052,8.618,2,13c-0.031,2.65-2.67,5.358-3,8
	c-0.931,7.453-1.606,32.534,0,40c0.663,3.08,3.099,5.039,4,8c-6.201,17.356,4.737,47.046-11,54c-8.021,3.544-19.116-2.33-31-2
	c-4.428-15.667-1.084-32.509,0-48c0.699-9.996-3.025-20.065-3-31c0.009-3.909,1.888-8.048,2-12c0.55-19.407-2.284-47.224-1-73
	c0.964-19.349,8.878-41.646-4-54c-11.8-1.536-20.458,6.408-30,1c-2.972-8.287-4.846-25.175-1-34c20.553-0.535,65.352-7.061,93-4
	C976.596,1585.813,993.579,1596.179,983.125,1619.658z"/>
<path fill-rule="evenodd" clip-rule="evenodd" d="M614.125,1590.658c6.658,11.861,10.176,24.948,0,35
	c-19.47,11.04-54.383-8.523-63,10c-4.867,10.461,3.803,19.938,3,33c-0.328,5.327-6.456,11.433-5,17c3.474,13.284,31.905,2.384,43,7
	c10.928,4.547,7.595,11.08,16,19c-3.22,5.908-5.604,9.057-5,17c-12.5,9.605-31.812,6.488-49,4c-2.632,1.035-3.368,3.965-6,5
	c1.995,13.005,5.333,24.667,9,36c0.187,12.896-11.097,13.53-10,23c2.113,18.24,52.244,0.545,67,14c2.968,2.707,13.948,15.905,12,24
	c-1.863,7.742-22.375,10.653-29,11c-19.404,1.017-38.01-0.554-56-1c-21.167-0.525-35.41-0.246-36-22
	c-1.258-46.337,5.94-100.83,2-149c-0.612-7.483-0.335-15.378,0-23c0.918-20.884-1.986-43.095,4-60
	C545.913,1588.849,584.344,1584.213,614.125,1590.658z"/>
<path fill-rule="evenodd" clip-rule="evenodd" d="M1104.125,304.658c8.243-6.125,8.546,10.893,15,13c0,4.667,0,9.333,0,14
	c-2.928,0.261-3.072-2.261-6-2c2.197,7.469,11.812,7.522,16,13c1.464,8.203,5.971,13.362,11,18c-2.115,9.39,4.288,13.693,10,22
	c4.426,6.438,5.206,13.389,11,18c-2.484,11.818,4.916,13.75,8,20c0.337,5.336-4.021,5.979-5,10c0.469,4.198,6.773,2.56,5,9
	c-4.865,1.532-3.765-2.902-7-3c-3.053,3.119,5.036,3.581,3,9c3.719,1.053,1.961-3.373,4-4c6.219-0.218,7.271,4.728,8,10
	c-4.192,2.098-8.57-0.435-11-3c-1.462,3.495,7.252,5.391,11,7c0.709,3.708-1.709,4.292-1,8c0.147,2.186,2.52,2.147,5,2
	c-3.814,9.543,7.996,18.106,3,26c-0.271,5.271,4.43,5.57,5,10c-5.324,2.299-2.739,11.648-6,18c-11.627,0.04-19.395,3.939-22,13
	c4.389-0.626,11.258-7.396,16-11c3.869-0.869,3.558,2.442,6,3c3.429-2.491,6.142-10.178,13-6c0.708,10.041-10.058,8.609-13,15
	c2.232,2.275,6.528-2.975,10,0c0.914,1.753,0.344,4.99,2,6c-57.031,45.184-105.451,101.473-157,156c-6.976,7.379-15.189,17.49-22,22
	c-4.735,3.136-10.902,3.284-16,6c-15.56,8.29-25.969,25.133-39,37c-13.662,12.441-26.529,23.076-41,34c-1.023-0.977-2.023-1.977-3-3
	c-3.945,8.021-11.659,15.45-22,14c-1.754,5.579-8.477,6.19-13,9c-2.231-0.147,1.298-2.52,0-5c-5.307-0.64-3.92,5.413-7,7
	c-4.841,0.348-14.753,3.775-23,4c3.85-38.299,29.572-65.316,48-95c4.888-7.873,7.564-16.501,12-24c12.632-21.355,30.608-39.93,46-61
	c29.979-41.04,63.312-77.761,94-121c13.043-18.377,47.205-42.397,22-63c0.658-1.342,2.138-1.862,4-2c-3.723-2.944-8.042-5.291-13-7
	c-3.701-0.701-2.494,3.506-4,5c-27.077,3.947-37.343,26.343-55,44c-36.033,36.033-63.834,84.508-110,109
	c-30.037,38.126-66.705,74.041-108,105c-18.479,13.854-30.388,29.989-57,33c8.503-40.065,43.989-69.578,58-105
	c3.801-9.608,5.374-20.157,13-26c4.293-3.29,10.214-3.702,14-7c15.385-13.402,16.412-42.089,30-59c7.958-9.905,15.449-14.058,21-23
	c7.302-11.762,12.619-26.699,13-48c-33.874-23.034-63.409,11.228-85,27c-6.459,4.718-13.585,6.518-19,10
	c-7.513,4.832-13.832,12.896-21,19c-20.889,17.787-46.286,33.463-78,41c24.547-57.453,76.842-87.159,87-159
	c23.241-25.759,47.326-50.674,50-97c-41.644-34.02-89.415,5.388-123,33c-12.39,10.187-23.918,20.5-35,30
	c-12.459,10.681-24.747,18.889-37,28c-15.283,11.364-27.069,36.778-52,29c3.53-25.803,15.449-43.217,33-55
	c22.47-70.529,85.567-100.433,87-192c-12.602-8.718-20.607-14.863-40-13c-21.577,2.073-37.669,19.69-56,25
	c-8.831,2.558-20.495,0.852-27,5c-5.229,3.334-7.918,11.079-13,15c-13.09,10.099-30.604,11.57-45,22
	c-5.688,4.121-9.085,11.362-15,16c-8.767,6.875-22.131,6.369-31,13c-5.971,4.464-9.674,11.755-15,16
	c-14.447,11.515-29.167,19.353-42,28c-30.081,26.919-67.313,46.687-101,70c-11.757,24.049-36.523,36.522-56,56
	c-18.433,18.433-31.721,43.982-52,59c-6.78,5.021-16.002,6.575-23,11c-20,12.646-35.936,31.746-56,45
	c-1.226,21.971-21.183,29.881-16,55c-20.877,8.123-41.925,16.075-39,48c9.835,7.413,39.8,10.371,44-4
	c15.302-1.365,13.42-19.914,17-33c2.543-2.457,6.865-3.135,10-5c31.625-40.375,74.206-69.794,100-116
	c38.402-18.265,67.576-45.757,99-71c2.984,0.016,3.4,2.6,6,3c3.24-1.127,3.494-5.834,2-9c36.622-26.003,73.874-54.551,107-85
	c12.268-11.276,23.35-16.938,41-23c5.31-1.823,10.072-9.144,15-14c24.99-5.208,43.064-22.835,63-36
	c17.732-11.71,34.198-21.831,56-29c3.363,15.368-3.045,29.617-8,40c-2.824-0.843-2.755-4.578-6-5c-1.766,1.674,0.888,3.351,0,7
	c-0.168,2.168,3.547,0.453,5,1c-15.238,32.185-33.675,61.361-54,90c-6.455,9.096-16.261,19.188-20,28c-1.456,3.43-0.392,8.57-2,12
	c-6.848,14.606-31.406,20.313-41,34c-4.495,6.412-5.958,12.725-11,19c-29.624,36.869-55.665,80.367-86,119
	c-35.04,44.625-77.44,84.161-101,134c-4.49,0.843-7.907,2.76-11,5c-0.564,4.564,1.772,6.228,1,11c-3.65,1.016-6.853,2.481-10,4
	c-52.951,65.715-103.887,133.446-154,202c-3.808-0.859-5.764-3.569-6-8c-4.365-0.306-4.446,2.958-8,1
	c2.175-20.842-11.317-26.017-27-29c3.332-2.001,5.28-5.386,6-10c-0.147-2.231-2.52,1.298-5,0c-2.934,0.85,1.301,2.517,0,5
	c-3.951,0.104-5.059-5.556-2-7c-3.24-5.427-9.154-8.179-10-16c1.995-1.005,1.578-4.422,5-4c2.431,2.235,0.614,8.719,4,10
	c5.604-0.063,1.956-9.377,3-14c-9.727-2.394-8.11,6.557-16,6c-3.901-3.271-7.397-10.564-6-16c16.039,2.706,22.693-3.974,24-16
	c-8.267-1.067-9.199,14.067-17,7c0.07-3.597,4.173-3.16,8-3c-5.458-7.43-10.993,7.75-16,1c0.319,3.986,0.055,7.388-2,9
	c-5.656-6.01-6.165-17.169-11-24c1.395-6.605,5.395-10.605,12-12c1.681-5.681-5.755-2.245-5-7c2.66-2.366,7.25-0.6,8,2
	c5.121-1.426,4.242-13.466,4-17c-1.042-2.656-8.525-3.373-7,2c0.873,2.957,0.794-3.023,4-1c-0.243,4.09,0.974,9.641-2,11
	c-4.193,0.367-0.714-3.257-1-5c-7.689-5.904-16.641-4.501-25-6c0.755-3.578,2.313-6.353,6-7c3.702-0.702,1.725,4.275,4,5
	c7.238-1.324,3.914-8.277,2-13c5.627-2.968-0.058-7.667,5-13c-3.423,0.046-10.687,7.521-7,15c-2.747,1.92-5.511,3.822-10,4
	c-5.733-12.037-12.396-28.131-10-45c0.74-3.407-3.685-1.648-4-4c0.696-10.304,3.537-18.463,12-21c-0.547-3.119-5.8-1.534-8-3
	c-0.875-4.125-0.396-9.604-6-9c4.507-7.645-7.113-15.31-1-21c-6.372-8.042-9.53-25.827-1-31c-1.194-2.473-3.424-3.91-6-5
	c0.87-1.464,1.497-3.169,4-3c-5.985-0.214-13.902-4.815-14-14c-0.895-3.228,3.262-1.405,4-3c-0.784-16.701-3.146-30.765,4-45
	c0.646-3.98-2.646-4.021-2-8c-0.316-3.983,4.625-2.708,5-6c-0.266-7.067-5.77-8.897-7-15c3.149-3.165,1.281,3.795,5,3
	c0.685-7.343-1.798-23.739,4-29c-1.71-2.916-3.64,2.266-7,1c2.017-7.306,8.512-17.766,6-27c-1.475-5.419-6.943-4.106-7-10
	c2.696-2.306,9.826-4.379,14-2c-1.715-15.048,5.479-21.187,5-35c3.144-0.856,4.22-3.78,8-4c-2.878-8.574,1.709-18.424-2-26
	c2.101-1.899,5.124-2.876,8-4c-2.292-3.346-2.312-8.57-1-13c6.924,0.924,5.274-6.726,11-7c0.909-4.909-4.191-3.809-4-8
	c5.543-1.124,4.477-8.856,12-8c-0.781-6.552-7.815-6.851-10-12c0.848-3.819,4.521-4.812,8-6c-0.042,3.292-1.688,4.979-1,9
	c4.469,0.708,12.195-1.928,15-6c-0.453-6.214-6.857-6.476-10-10c0.733-0.934,1.818-1.515,3-2c-2.916-2.084-6.162-3.838-8-7
	c4.352-3.315,6.914-8.419,15-8c-0.655-6.344,3.014-13.623,0-19c7.593-4.741,11.337-13.329,14-23c14.726-2.274,10.013-23.987,25-26
	c1.835-4.499,3.217-9.45,9-10c-4.382-10.41,9.842-15.224,6-25c1.402-2.913,3.445,1.773,6,1c2.625-2.919-0.889-5.761,0-10
	c4.44-4.877,10.82-2.052,14,2c6.676-2.324,8.673-9.327,8-19c1.798-5.202,7.735-6.265,10-11c4.806-0.472,2.194,6.472,7,6
	c4.191-1.67,1.916-10.215-3-9c2.946-2.055,2.842-11.363,8-8c-0.664-5.331,0.774-8.56,3-11c3.417,1.637,8.615,1.172,11-1
	c-0.573-2.427-6.469,0.469-6-3c2.404-11.596,11.669-16.331,24-18c0.098-8.909,3.584-18.613,13-15c1.383-3.283,6.244-3.089,5-9
	c8.077,2.077,5.401-6.599,12-6c0.646-3.98-2.646-4.02-2-8c8.437-2.896,14.609-8.057,19-15c2.203-2.084,4.295,1.582,8,1
	c2.315-7.46,10.311-14.209,17-14c0.395-7.392,7.626-11.245,13-8c4.989-7.678,15.099-10.234,20-18c9.875,0.875,14.624-3.376,18-9
	c3.375,0.625,4.451,3.549,8,4c0.733-0.862-0.266-5.206,2-7c12.643-3.295,20.819-1.033,27,6c0.567-6.234-7.681-3.652-7-10
	c1.172-0.162,0.843-1.823,1-3c4.07-1.976,10.083-1.078,12,2c0.164-3.164-2.658-3.342-2-7c11.887,0.553,17.188-5.479,22-12
	c9.069,4.267,11.256-6.299,19-3c1.786-1.548,0.665-6.002,3-7c6.645,1.355,10.813,5.187,20,4c2.919-1.414,3.173-5.494,5-8
	c3.367,0.633,5.128,2.872,10,2c-0.678-6.388,9.762-11.609,16-6c2.062-0.272,0.238-4.428,3-4c12.586,3.986,19.63-3.708,31-4
	c0.617,5.383,2.479,9.521,6,12c1.501-3.166,1.893-7.441,8-6c4.564-3.103,3.386-11.947,13-10c-0.491,4.491,0.507,7.493,1,11
	c2.355-0.022,2.944,1.723,6,1c5.191,0.191,1.316-8.684,8-7c3.716,4.694-3.931,4.938-3,10c6.201,2.163,8.574-6.254,11-11
	c3.667,0,7.333,0,11,0c-1.988,3.911-1.159,9.391,4,9c-1.244,2.756-9.268-1.268-8,4c11.692,5.346,10.908-10.416,13-18
	c17.439-9.705,32.381,11.052,50,1c2.108,5.769,16.327,10.117,21,4c2.393,1.273,4.071,3.262,4,7c6.795-3.305,8.338,5.075,13,7
	c4.18,0.513,2.744-4.589,5-6c4.809-1.835,11.436,0.54,14,4c4.636-2.364,6.641-7.359,15-6c1.858,1.809,2.284,5.05,3,8
	c2.79-1.768,13.635,2.668,16-2c5.253,6.747,17.877,6.123,28,8c3.248-0.751,4.384-3.617,6-6c5.055,1,8.252,4.371,14,2
	c0.324,7.675,9.088,6.912,10,14c11.955-3.843,17.602,6.982,32,4c0,2,0,4,0,6c3.288-0.045,2.393-4.274,6-4
	c9.379,5.287,21.933,7.401,24,20c3.757-1.91,9.069-2.264,15-2c5.016,4.318,9.105,9.561,20,8c5.168,4.499,9.521,9.812,18,11
	c1.403,3.264,0.367,8.966,7,7c-0.872,4.872,1.367,6.633,2,10c4.739-1.919-1.692-5.034,0-10c11.987,4.012,23.853,8.148,28,20
	c2,0,4,0,6,0c0.724,7.61,5.954,10.712,9,16c4.863,0.863,5.137-2.863,10-2c3.718,1.282,4.681,5.319,7,8c1.059,3.726-2.105,3.228-3,5
	c3.731,2.492,9.393-0.194,11-3c2.418,1.248,3.234,4.099,4,7c3.246,0.58,4.652-0.681,7-1c0.933,4.733,0.685,10.649,2,15
	c1.719-1.282,1.239-4.761,4-5c13.959,1.256,9.346,17.084,4,22c0.3,2.701,4.207,1.793,5,4c3.314-0.019,1.016-5.651,3-7
	c4.804,3.582,11.348,5.545,6,10c4.146-0.52,4.286-5.047,10-4c3.041,4.626,9.147,6.186,8,15c3.545,0.211,1.976-4.691,6-4
	c5.781-0.448,4.985,5.681,10,6c-0.798,1.869-1.671,3.663-2,6c6.858,8.475,12.221,18.446,26,20c0.48,5.854,4.58,8.086,10,9
	c2.148,4.071-1.016,7.216-4,9c2.217,7.885,15.6,9.595,14,18c6.731-0.398,12.87-0.203,13,6c-3.808,1.428-2.702,10.009-8,7
	c-0.169,4.835,3.16,6.173,5,9c3.456,0.399,6.564-4.692,8-3c10.979,8.981,9.029,23.55,1,34c4.079,0.413,6.309-1.024,6-5
	c4.582,2.085,7.063,6.27,8,12c-6.383,1.05-7.922-2.745-12-4c-0.5,7.834,7.211,7.456,15,7c0.798,1.869,1.671,3.663,2,6
	C1115.723,312.351,1106.885,312.345,1104.125,304.658z M758.125,37.658c-0.177-6.176-9.04-8.936-13-8
	C748.702,33.082,750.313,38.471,758.125,37.658z M703.125,45.658c0.633-6.299-1.812-9.522-7-10
	C695.608,38.259,699.018,44.461,703.125,45.658z M592.125,59.658c-4.555-0.271-0.77-6.687,0-8c-1.289-1.378-4.344-0.99-7-1
	C585.052,55.943,588.219,64.472,592.125,59.658z M358.125,95.658c0.779,0.221,1.163,0.837,1,2c5.199,0.199,9.987-0.013,9-6
	C363.437,91.636,358.266,91.131,358.125,95.658z M642.125,109.658c1.249,4.069,4.669-2.057,10,0c-0.564-3.683,7.025-8.35,4-8
	C654.838,107.704,645.18,105.379,642.125,109.658z M888.125,125.658c2.993-4.917-3.817-4.415-4-9c4.806-3.134,2.558,4.076,8,3
	c0.279-4.279-3.055-4.945-2-10C881.12,108.448,878.805,125.454,888.125,125.658z M664.125,119.658c1.776,2.548,11.626,6.093,10-2
	C670.659,118.191,664.641,116.172,664.125,119.658z M895.125,154.658c3.563-0.851,4.274-8.485,9-5c-0.823-2.51,1.944-8.611-2-8
	C899.41,145.608,895.801,148.667,895.125,154.658z M312.125,156.658c2.442,2.535,2.131-2.108,6-1c0.521-4.521-0.794-7.206-4-8
	C313.052,150.251,311.696,152.562,312.125,156.658z M822.125,149.658c0,2.667,0,5.333,0,8c2.692,2.612,9.308,2.612,12,0
	c0.479-3.146-1.424-3.909-2-6c-5.162,0.913-5.24,0.717-7-3C824.958,149.823,823.544,149.744,822.125,149.658z M384.125,158.658
	c5.494-1.32,8.25-0.474,12,2c0.164-3.164-2.658-3.342-2-7c-3.333,0-6.667,0-10,0C384.125,155.324,384.125,156.991,384.125,158.658z
	 M510.125,167.658c0.261-6.613-3.594-14.381-10-11C503.147,160.636,503.527,167.256,510.125,167.658z M976.125,171.658
	c0-2.667,0-5.333,0-8c1.479-1.158,2.521-1.158,4,0c-0.823-2.51,1.943-8.611-2-8C978.014,161.079,968.584,167.894,976.125,171.658z
	 M663.125,170.658c4.372-0.039,5.027,3.64,10,3c1.151,2.182,0.198,6.468,3,7c-2.035-3.965-1.21-10.79-3-15
	c-0.122,2.544-1.456,3.878-4,4c-5.789,0.151-3.507-7.375-6-8C661.155,163.747,662.361,168.298,663.125,170.658z M466.125,190.658
	c3.63,0.703,5.444,3.223,8,5c0-2.667,0-5.333,0-8C470.188,187.387,467.177,188.042,466.125,190.658z M951.125,205.658
	c4.418,0.051,6.347-7.608,5-10C953.319,197.851,950.305,199.838,951.125,205.658z M953.125,213.658c4.641,1.961,11.595-1.486,13-6
	C959.838,207.704,954.281,208.479,953.125,213.658z M221.125,229.658c3.436-2.231,9.725-1.608,9-8c-4.317,1.815-9.436-1.075-14-2
	C216.295,224.488,219.297,226.486,221.125,229.658z M731.125,248.658c0.38-6.38-1.336-10.664-7-11
	C723.746,244.038,725.461,248.322,731.125,248.658z M984.125,257.658c2.584-2.416,7.573-2.427,8-7c-0.211-1.122-1.109-1.557-2-2
	C989.193,252.093,981.801,254.288,984.125,257.658z M1046.125,266.658c0.075,1.742-0.223,3.11-1,4c5.583-0.751,9.17-3.497,12-7
	C1050.813,262.34,1051.564,270.001,1046.125,266.658z M391.125,275.658c4.457,0.311,9.017,2.06,13,0c1.302-5.302-2.897-5.103-2-10
	c-2.391,0.609-7.255-1.255-8,1C397.323,269.922,392.297,273.447,391.125,275.658z M230.125,273.658c1.508,2.159,3.681,3.653,6,5
	c0.804-3.133,9.229-6.103,4-9C239.196,274.367,232.427,272.84,230.125,273.658z M138.125,273.658c-0.917,6.917,4.227,7.773,10,8
	c-1.201-4.474,4.925-7.895,0-10C147.743,277.817,141.858,274.676,138.125,273.658z M1034.125,281.658c6.24,0.907,3.432-7.235,6-10
	c-2,0-4,0-6,0C1034.125,274.991,1034.125,278.324,1034.125,281.658z M422.125,288.658c4.673-0.66,7.34-3.327,8-8
	C426.451,282.316,422.246,283.444,422.125,288.658z M122.125,295.658c5.517,0.517,8.556-1.444,9-6c-3.247,0.58-4.652-0.681-7-1
	C124.783,292.315,121.961,292.494,122.125,295.658z M960.125,290.658c-0.071,3.738,1.606,5.727,4,7c-0.61-4.943,4.059-4.608,8-5
	C971.322,287.01,965.449,293.912,960.125,290.658z M656.125,307.658c5.907,0.574,5.804-4.862,8-8c-1.78,0.598-4.153-2.931-5,0
	C662.324,302.6,654.584,303.059,656.125,307.658z M222.125,338.658c2.555-0.445,4.598-1.402,6-3c-1.759-0.241-2.279-1.721-2-4
	c-2,0-4,0-6,0C220.292,334.491,221.958,335.825,222.125,338.658z M1072.125,345.658c3.354,0.021,6.667,0,6-4
	c-2.562-1.084-4.768,3.038-6,0c-0.479-3.146,1.424-3.909,2-6C1067.077,334.932,1071.245,342.868,1072.125,345.658z M332.125,359.658
	c5.624-0.043,5.553-5.78,7-10C334.028,350.228,333.697,355.562,332.125,359.658z M476.125,351.658c-1.084,2.561,3.038,4.767,0,6
	c-3.09-0.243-1.689-4.977-6-4c0.135,4.195-1.818,5.586,0,9c-2.685,1.648-9.266-0.6-8,5c6.225-1.108,9.916-4.751,18-4
	c-2.969-4.168,2.89-10.247,0-14C479.885,351.417,478.405,351.937,476.125,351.658z M453.125,353.658c0.224,1.891-1.127,2.207-1,4
	c4.696-0.638,10.465-0.201,10-6C458.398,351.597,455.801,352.666,453.125,353.658z M1107.125,373.658c3.741,2.052,11.133-3.652,15,1
	c-0.563-2.658,4.113-5.092,1-7C1118.525,370.39,1110.351,369.55,1107.125,373.658z M958.125,369.658c-0.225,1.891,1.127,2.207,1,4
	c2.275,0.725,5.108,0.892,7,2C967.849,369.521,962.105,366.918,958.125,369.658z M146.125,389.658c2,0,4,0,6,0
	c0.521-4.521-0.794-7.206-4-8C148.069,384.935,145.282,385.48,146.125,389.658z M586.125,406.658c2.749,6.104,13.445,6.643,14-2
	c-3.157-3.177-4.937-7.73-10-9C590.995,401.528,586.381,401.914,586.125,406.658z M387.125,408.658c3.332-0.335,4.436-2.897,9-2
	c0.557-4.891-6.278-2.388-10-3C385.716,406.067,387.952,405.832,387.125,408.658z M504.125,406.658c0,3,0,6,0,9
	c2.651-0.015,5.888,0.555,6-2c-5.469-0.206,3.972-6.941-2-8C507.256,408.566,506.628,406.782,504.125,406.658z M1056.125,427.658
	c5.557,0.891,6.551-2.783,6-8c-1.333,0-2.667,0-4,0C1057.212,421.759,1058.231,424.781,1056.125,427.658z M855.125,448.658
	c-2.483,2.184-10.498-1.165-10,4c7.298,0.631,11.779-1.554,13-7c-2.358-1.288-1.86,0.131-5-1
	C852.397,447.386,855.113,446.67,855.125,448.658z M46.125,463.658c3.774-0.893,7.945-1.388,7-7c-1.352-0.314-1.91-1.423-4-1
	C47.412,457.611,47.388,461.254,46.125,463.658z M426.125,458.658c-0.169,5.835,6.226,5.108,12,5c-0.092-4.241-3.505-5.162-6-7
	C431.059,459.542,429.092,459.973,426.125,458.658z M1160.125,486.658c-1.578-5.239,1.614-10.759-4-13
	C1154.529,477.986,1156.777,484.253,1160.125,486.658z M1165.125,496.658c3.701,1.668,15.151,2.509,15-3
	c-0.224-0.776-0.027-1.973-1-2C1175.341,494.207,1166.104,491.303,1165.125,496.658z M1072.125,509.658c5.557,0.891,6.551-2.782,6-8
	C1073.337,501.536,1072.125,504.991,1072.125,509.658z M736.125,517.658c5.941-0.059,7.741-4.258,8-10c-1.427-0.239-1.687-1.647-3-2
	C740.672,510.872,734.982,510.848,736.125,517.658z M68.125,517.658c0.58-3.247-0.681-4.652-1-7c-2.365-0.693-8.945-2.312-11,0
	C57.785,515.301,61.642,520.914,68.125,517.658z M970.125,515.658c0.574,7.087,11.513,3.609,10-3
	C976.795,513.661,973.255,514.455,970.125,515.658z M83.125,519.658c3.63-0.036,7.895,0.561,9-2c-4.311-0.355-3.794-5.54-10-4
	C81.994,516.123,81.974,518.476,83.125,519.658z M1170.125,535.658c2.958-1.709,6.947-2.386,10-4c-0.136-3.198,0.985-7.652-3-7
	C1180.359,533.25,1167.227,530.726,1170.125,535.658z M1184.125,545.658c-2.479-1.188-0.02-7.314-4-7
	C1176.106,541.455,1179.955,549,1184.125,545.658z M248.125,597.658c6.992,2.954,13.461-1.367,12-10
	C253.95,588.816,249.427,591.625,248.125,597.658z M214.125,644.658c1.795,1.295,9.661,2.257,10-1
	C220.74,641.621,214.583,636.629,214.125,644.658z M33.125,689.658c1.667,0,3.333,0,5,0c-0.105-4.562-0.284-9.049-5-9
	C32.361,683.017,31.155,687.569,33.125,689.658z M100.125,693.658c0.551,5.217-0.443,8.891-6,8c-0.537,3.919,1.584,10.349,4,8
	c-3.119-6.813,13.04-8.266,11-14C106.674,698.365,104.233,692.607,100.125,693.658z M37.125,744.658c8.3,3.415,13.779,15.706,18,1
	c-7.875,0.209-9.25-6.084-17-6C38.444,741.977,37.965,743.497,37.125,744.658z M87.125,838.658c2.348-0.319,3.753-1.58,7-1
	c0-2.667,0-5.333,0-8C89.3,830.165,86.678,832.876,87.125,838.658z"/>
<path fill-rule="evenodd" clip-rule="evenodd" d="M1171.125,769.658c0.762,2.376,2.429-4.826,5-1c-5.825,3.841-4.374,14.959-14,15
	c-1.191,11.142-1.809,22.858-3,34c-14.646,5.632-9.31,25.238-20,35c-0.352,4.019,0.016,7.317,3,8c-10.247,5.086-16.769,13.898-19,27
	c-3.914-0.581-5.807,0.86-8,2c0.776,7.777-3.345,10.655-3,18c-1.313-0.353-1.573-1.761-3-2c-4.853,12.147-13.707,20.293-19,32
	c-5.612,0.945-5.758-3.576-7-7c-4.954,5.046-9.656,10.344-10,20c0.76,2.907,8.24-0.907,9,2c0.205,6.825-8.339,4.789-12,3
	c-2.09-3.243,0.077-10.744-4-12c-5.872,0.461-1.169,11.497-5,14c1.669,2.331,8.611-0.611,8,4c-1.34,3.327-6.353,2.981-9,5
	c0.798,5.131-2.105,6.561-2,11c-3.25,0.1-6.189,3.517-9,1c1.023,3.282,3.034,4.409,0,7c0.111,1.917,3.349-1.175,6,0
	c0.174,7.253-8.555,6.839-12,3c-3.26,3.073-3.912,8.754-6,13c-1.862-0.138-3.342-0.658-4-2c-6.021,8.312-11.59,17.076-19,24
	c-3.056,0.723-3.645-1.022-6-1c-5.323,5.343-10.282,11.051-13,19c-2.319,0.319-3.839-0.161-5-1c-7.002,9.527-12.116,14.798-20,23
	c-4.041-5.132-11.125,1.959-16-1c-1.308,7.975,8.433,4.9,7,13c-4.544,2.449-7.082-1.923-10-4c-4.003,3.664-6.538,8.796-12,11
	c-2.719,0.914,2.664,1.859,1,5c-4.092,5.908-16.669,3.331-20,10c-8.13-2.564-18.387,4.058-22,12c-4,0-8,0-12,0
	c-5.414,2.919-5.543,11.124-16,9c-1.483,0.85-2.15,2.517-2,5c-3.58-2.341-10.703-1.116-9,5c-3.255-3.078-7.488-5.178-11-8
	c-5.836,2.83-8.778,8.555-11,15c-9.282-2.509-13.937,10.679-19,3c-2.689,0.977-2.461,4.873-5,6c-12.851-0.019-18.479,4.966-30,7
	c-3.822,0.675-6.914,4.162-10,5c-6.479,1.76-13.105-0.02-18,4c-2.183-4.817,0.787-14.787-4-17c-4.723,2.77-4.281,10.839-3,17
	c-4.196,1.107-9.912,5.004-15,2c-11.256,11.036-32.853,8.592-47,5c-3.936,1.603-0.348-4.319-3-4c-6.101,1.189-5.271,6.423-6,11
	c-5.792,1.565-10.22-1.103-14,3c-3.382-0.951-7.569-1.098-7-6c-4.767,3.57-11.698,1.336-15-2c-6.583,5.75-17.852,6.814-26,11
	c-2.009-2.039,0.442-1.961,1-4c-9.195,3.582-23.415-4.044-27,5c-4.475,0.141-2.874-5.792-5-8c-3.541-0.541-2.459,3.541-6,3
	c-0.083-1.584,0.481-3.814-1-4c-2.797,3.188,2.877,6.413,2,11c-2.791-3.646-5.424-2.442-11-2c-2.182-3.152-2.72-7.947-6-10
	c-3.365,0.395-2.68,7.747,2,6c-4.947,4.982-10.208-3.549-14-6c-8.505,4.247-21.238,4.667-32,4c0.132-2.465,0.151-4.818-1-6
	c-3.977-0.311-5.023,2.311-9,2c0.698-5.364-4.951-4.383-5-9c-11.758-1-17.899,8.644-30,4c-1.168-5.168,6.953-1.047,7-5
	c-0.869-3.688-8.473-1.746-11-1c-0.839-1.16-1.319-2.682-1-5c-8.985,0.357-15.468,8.52-22,8c-4.451,0.152-0.598-4.055,0-5
	c-2.701-3.632-8.838-3.829-14-5c-1.479-2.188-1.95-5.383-4-7c-4.058,2.748-18.13,3.768-29,3c-2.044-3.716,0.35-6.284,1-10
	c-3.472-0.089-7.768,4.166-10,2c-3.944,0.61-1.176-5.49-2-8c-10.289,5.032-23.256-1.19-34-2c0-2.667,0-5.333,0-8
	c-1.105-2.561-5.37-1.964-9-2c-0.119-2.881,0.546-6.546-1-8c-23.171,2.336-40.854-8.641-33-31c-7.616,1.717-8.181,10.486-10,18
	c-3.352,0.476-6.566-3.199-13-1c1.903-6.236-3.188-5.479-6-7c-0.458-3.124,2.137-3.197,5-3c-3.133-4.867-12.987-3.013-17-7
	c-0.788-4.121,4.788-1.879,4-6c-4.623-3.109-7.799,2.496-13,2c-2.266-2.561-0.403-7.054,1-9c-3.333,0-6.667,0-10,0
	c0.187-2.761-4.976-8.895,0-10c-1.725-2.942-10.275,0.942-12-2c-1.745-0.865,0.7-7.563-6-8c-0.326-4.183,3.858-7.411,1-11
	c-4.462,0.871-5.75,4.916-7,9c-5.721-1.612-11.647-3.02-11-11c-0.962-0.645-5.823,0.022-8-2c-0.987-4.292-2.371-6.646-1-11
	c-13.737,1.002-21.174-9.4-20-20c-7.328-1.994-3.519,7.147-8,8c-4.587-2.916-7.126-11.566,1-12c-1.105-2.561-5.37-1.964-9-2
	c-1.988-8.18-5.198-10.614-9-18c30.262-27.374,56.469-56.044,78-90c10.949-17.268,18.677-35.685,32-52
	c6.307-7.724,13.483-15.075,19-23c5.673-8.149,8.92-18.108,15-26c6.573-8.531,14.879-16.186,22-25
	c47.874-59.26,101.62-116.621,156-171c31.416-31.416,65.558-59.18,98-89c24.791-22.788,46.346-46.265,74-66
	c8.955-6.391,19.931-10.051,29-17c13.809-10.581,22.959-38.775,50-28c-18.737,42.813-47.261,77.128-73,114
	c-8.497,12.172-14.798,26.716-24,38c-7.538,9.243-19.626,15.023-28,24c-12.711,13.627-22.893,27.203-28,49
	c-26.571,21.731-50.987,48.532-74,78c-21.163,27.1-44.507,54.154-68,83c-33.7,41.378-66.672,82.787-100,127
	c-16.098,21.356-44.582,45.646-28,80c43.131,4.245,61.331-34.206,82-60c20.353-25.398,39.045-50.024,51-73
	c49.72-43.611,94.301-92.751,145-135c37.969-31.64,76.033-64.237,115-95c13.191-10.414,27.776-17.112,42-27
	c5.674-3.944,8.975-11.476,18-10c3.936,2.938,3.265,9.346,3,14c-1.506,26.463-23.775,48.7-40,66c-18.326,19.541-32.281,40.098-45,60
	c-1.667,0-3.333,0-5,0c-1.65,0.14,1.047,4.171,0,7c-19.679,19.013-31.281,49.244-53,73c-4.672,5.11-11.768,8.506-16,14
	c-11.2,14.537-21.555,35.667-25,55c-2.663,14.943,1.185,28.908,8,40c62.322-2.678,77.544-52.456,106-89
	c20.396-8.332,38.153-16.504,54-28c15.65-11.354,28.865-24.921,44-38c8.459-7.31,19.581-13.384,32-15
	c-6.036,53.857-49.746,76.55-54,131c-1.451,18.581,16.078,29.42,36,28c33.745-2.405,69.294-28.294,90-49
	c8.193-8.193,15.178-18.972,23-23c8.177-4.21,14.324-4.53,22-10c6.051-4.312,11.504-10.572,21-11c1.845-19.781,26.795-21.982,36-36
	c4.473-6.811,2.518-13.392,9-21c29.032-8.301,42.243-32.424,63-49c3.14-1.111,2.642-0.468,5,1c4.259-13.075,19.54-15.126,30-22
	c17.321-30.345,44.861-50.473,72-71c3.445,2.889,8.964,3.703,10,9c-5.563,3.985-11.858,16.148,2,16c-0.423,10.244-1.209,20.124-5,27
	c6.567,8.729-1.951,19.63,1,30c1.768,4.232,9.597,2.403,9,9c-1.939,7.061-16.257,1.744-21,6c-0.191,6.191,3.752,8.248,5,13
	c-5.713,2.69-3.048,16.578-11,14c-0.359,8.027,1.117,14.216,2,21c-1.313-0.353-1.572-1.761-3-2
	C1169.13,758.45,1173.783,766.204,1171.125,769.658z M1159.125,705.658c7.248,0.248,9.735-4.265,15-6
	c-5.228-1.439-10.875-2.458-18-2C1156.732,700.718,1158.249,702.868,1159.125,705.658z M478.125,723.658c1.664-3.184,1.71-4.185,1-8
	c-1.904-0.429-2.512-2.154-5-2C471.188,717.835,474.74,722.63,478.125,723.658z M1168.125,731.658c0.468-6.468-2.273-9.726-6-12
	C1160.088,724.668,1160.9,732.859,1168.125,731.658z M344.125,767.658c1.759,0.241,2.279,1.721,2,4c-1.446,1.888-2.234,4.433-6,4
	c-3.032,0.031-0.968-5.032-4-5c0.725,3.059-1.725,2.941-1,6c4.245-0.245,5.384,2.616,10,2c2.83-9.17,10.339-13.661,13-23
	C349.488,755.712,351.966,769.854,344.125,767.658z M510.125,833.658c4.932-0.757,12.832-3.805,9-10
	C515.021,825.887,509.855,827.054,510.125,833.658z M768.125,842.658c-4.033,2.771-5.048,0.801-10,0
	C757.009,849.358,769.001,849.022,768.125,842.658z M690.125,869.658c0.891-7.558-0.961-12.373-8-12
	C681.752,864.698,681.524,871.592,690.125,869.658z M829.125,907.658c4.781,1.114,4.219-3.114,9-2c0.568-4.568-2.297-5.703-6-6
	c-0.261,2.928,2.261,3.072,2,6C831.645,905.511,829.273,905.471,829.125,907.658z M763.125,923.658c7.275-0.725,5.59-10.411,11-13
	c-0.125-2.208-4.242-0.425-6-1C769.352,917.217,763.269,917.468,763.125,923.658z M287.125,935.658c0.261,1.406,2.193,1.14,3,2
	c0.397-4.551,7.455-14.67,1-14C292.854,928.633,288.841,932.482,287.125,935.658z M1013.125,954.658c2.396-0.604,4.562-1.438,8-1
	c0.521-1.574,3.85-5.355,1-7c-3.865,3.474-6.795-2.495-12-1C1010.453,949.331,1011.27,952.513,1013.125,954.658z M696.125,967.658
	c-4,0-8,0-12,0C682.247,975.598,698.12,976.138,696.125,967.658z M501.125,973.658c2.925,1.408,3.453,5.214,9,4
	C512.167,971.679,502.829,969.622,501.125,973.658z M873.125,1010.658c2.348-0.318,3.754-1.58,7-1c0.235-5.235-3.206-6.794-7-8
	C873.125,1004.658,873.125,1007.658,873.125,1010.658z M328.125,1009.658c5.746,0.746,6.987-3.013,9-6c-1.742,0.075-3.11-0.223-4-1
	C333.88,1007.413,326.444,1003.977,328.125,1009.658z M291.125,1016.658c2.409-0.409,2.174,1.826,5,1c-2.253-4.033,2.395-5.048,2-10
	C293.812,1008.677,290.356,1010.555,291.125,1016.658z M566.125,1036.658c-0.84-4.776,5.065-10.267,0-13
	C562.964,1025.9,561.378,1034.835,566.125,1036.658z M626.125,1034.658c0,1,0,2,0,3c3.125,2.146,9.483,0.613,10-3
	C634.739,1032.695,627.639,1033.438,626.125,1034.658z M298.125,1047.658c3.279-2.289,1.735-8.153,0-11
	c-1.177,0.156-2.838-0.172-3,1C299.796,1038.121,292.803,1046.542,298.125,1047.658z M547.125,1048.658c0.075,4.592,3.94,5.394,7,7
	c-0.656-5.989,4.421-6.245,4-12C552.468,1043.334,553.232,1049.43,547.125,1048.658z M858.125,1107.658
	c6.94-0.74,10.605-10.043,9-16c-2.745,3.002-4.617-3.325-8-3C859.276,1096.08,854.161,1102.126,858.125,1107.658z M721.125,1107.658
	c4.476,0.476,5.004-2.996,5-7c-1.406-0.261-1.14-2.193-2-3c-1.496,0.17-3.69-0.357-4,1
	C721.964,1100.168,723.083,1105.406,721.125,1107.658z M604.125,1116.658c0.571-3.096,5.352-1.981,4-7c-4.177,0.844-4.723-1.944-8-2
	C600.148,1111.968,601.099,1115.351,604.125,1116.658z M828.125,1123.658c5.598,0.598,8.601-1.399,8-7
	c-4.246,4.357-6.715,0.566-10,1C827.872,1118.578,828.333,1120.784,828.125,1123.658z M664.125,1135.658
	c-4.396-0.938-5.729-4.938-12-4C651.258,1138.738,662.428,1142.687,664.125,1135.658z M596.125,1151.658
	c5.712-0.955,9.813-3.521,12-8c-0.762-2.571-2.428-4.238-5-5C605.05,1147.249,595.598,1144.464,596.125,1151.658z M578.125,1156.658
	c0-3.667,0-7.333,0-11c-2,0-4,0-6,0C571.62,1151.83,573.51,1155.607,578.125,1156.658z"/>
</svg>
